PathFileType	4	(X/Y/Z)	C:/Users/opensim2020/Desktop/walking_exp_matlab/subject06_walking14_straight_02.trc																																																																																																																																					
DataRate	CameraRate	NumFrames	NumMarkers	Units	OrigDataRate	OrigDataStartFrame	OrigNumFrames																																																																																																																																	
100	100	6	45	mm	100	1604	192																																																																																																																																	
Frame#	Time	LFHD			RFHD			LBHD			RBHD			C7			T10			CLAV			STRN			RBAK			LSHO			LUPA			LELB			LFRM			LWRA			LWRB			LFIN			RSHO			RUPA			RELB			RFRM			RWRA			RWRB			RFIN			LASI			RASI			LPSI			RPSI			LTHI			LKNE			LTIB			LANK			LHEE			LTOE			RTHI			RKNE			RTIB			RANK			RHEE			RTOE			*39			*40			*41			*42			*43			*44		
		X1	Y1	Z1	X2	Y2	Z2	X3	Y3	Z3	X4	Y4	Z4	X5	Y5	Z5	X6	Y6	Z6	X7	Y7	Z7	X8	Y8	Z8	X9	Y9	Z9	X10	Y10	Z10	X11	Y11	Z11	X12	Y12	Z12	X13	Y13	Z13	X14	Y14	Z14	X15	Y15	Z15	X16	Y16	Z16	X17	Y17	Z17	X18	Y18	Z18	X19	Y19	Z19	X20	Y20	Z20	X21	Y21	Z21	X22	Y22	Z22	X23	Y23	Z23	X24	Y24	Z24	X25	Y25	Z25	X26	Y26	Z26	X27	Y27	Z27	X28	Y28	Z28	X29	Y29	Z29	X30	Y30	Z30	X31	Y31	Z31	X32	Y32	Z32	X33	Y33	Z33	X34	Y34	Z34	X35	Y35	Z35	X36	Y36	Z36	X37	Y37	Z37	X38	Y38	Z38	X39	Y39	Z39	X40	Y40	Z40	X41	Y41	Z41	X42	Y42	Z42	X43	Y43	Z43	X44	Y44	Z44	X45	Y45	Z45
																																																																																																																																								
25	0.24	-701.33795	1653.56616	942.4986	-690.41486	1647.8092	1074.18066	-833.25751	1596.99292	955.34619	-820.20172	1596.39014	1083.97595	-824.0224	1444.55652	1017.14313	-874.49329	1118.9541	1032.41992	-715.6438	1365.06018	1009.31024	-685.42047	1188.00146	1009.51544	-894.65607	1284.87	1113.87793	-783.95416	1394.44824	852.20959	-843.0376	1199.03491	792.49036	-880.88654	1092.72156	790.30304	-901.24335	943.09564	770.77521	-866.06195	816.65973	807.93756	-931.99225	828.0528	779.55524	-912.88416	738.27106	776.9704	-740.68335	1404.69019	1171.63037	-731.76166	1212.97668	1273.79187	-686.0976	1102.17761	1294.95081	-609.86536	1012.14136	1313.71875	-478.88861	942.98462	1288.10376	-525.32587	901.73505	1310.31982	-449.91003	864.64459	1315.8125	-689.7323	958.44861	925.35419	-701.53857	960.05634	1144.54492	-850.56726	979.76074	944.03888	-853.27136	985.89362	1112.9126	-689.61218	649.21185	854.23743	-628.1037	498.60159	882.35144	-614.10693	244.6853	889.17358	-573.79297	75.52049	925.98621	-603.35553	53.28323	976.33508	-428.9548	74.26394	914.95728	-791.1897	625.59583	1184.224	-806.02759	499.74655	1160.28076	-916.22571	251.51689	1144.2843	-968.26959	74.46532	1086.88025	-1007.5976	54.75396	1038.39282	-818.39575	31.02652	1096.07434	-796.83685	1692.76184	1008.07855	NaN	NaN	NaN	NaN	NaN	NaN	NaN	NaN	NaN	NaN	NaN	NaN	NaN	NaN	NaN
26	0.25	-691.79456	1652.07874	942.54669	-680.65088	1646.31995	1074.25549	-823.61884	1595.48083	955.46338	-810.39722	1594.94666	1084.17419	-814.44299	1443.10583	1017.26385	-864.79968	1117.43738	1032.15637	-706.091	1363.49902	1009.44122	-675.80853	1186.51074	1009.68927	-885.22595	1283.40173	1113.8595	-774.49908	1392.96533	852.33557	-834.92041	1198.00867	792.93341	-873.61292	1091.99878	790.90149	-895.70331	942.6488	771.33875	-861.71613	815.6402	807.71265	-927.6593	827.90857	779.95453	-909.69458	737.94495	777.27374	-731.21393	1403.14575	1171.68396	-721.5481	1211.73242	1274.18115	-674.99072	1101.30994	1295.30688	-597.34119	1012.54163	1313.71106	-465.43658	945.77618	1287.1698	-510.92636	903.75848	1309.59192	-435.03598	868.09094	1315.01758	-679.36395	957.0498	925.55774	-692.18628	958.76788	1144.8053	-840.28357	978.2168	943.49048	-843.85583	984.43457	1112.33118	-681.95618	646.6745	853.95038	-620.1875	496.4346	883.11487	-596.31757	243.29971	889.58789	-548.72839	75.88221	926.19141	-577.40979	52.47983	976.50714	-403.72025	79.97855	915.38043	-783.98438	624.84424	1184.29785	-800.15381	499.04733	1160.52942	-913.27435	252.0123	1144.13062	-967.63727	75.69742	1086.85486	-1006.96716	56.22969	1038.48169	-818.16431	30.69771	1095.9519	-787.15765	1691.28943	1008.28674	NaN	NaN	NaN	NaN	NaN	NaN	NaN	NaN	NaN	NaN	NaN	NaN	NaN	NaN	NaN
27	0.26	-682.15375	1650.68408	942.59961	-670.90314	1644.90613	1074.25171	-813.88116	1593.99902	955.66919	-800.60095	1593.49585	1084.26941	-804.90546	1441.65259	1017.30145	-855.05402	1115.9325	1031.83704	-696.30304	1362.11816	1009.43524	-666.08319	1185.11499	1009.72839	-875.78467	1281.93884	1113.7041	-764.98682	1391.52441	852.33228	-826.5647	1196.93506	793.3183	-865.87115	1091.22449	791.2782	-889.24585	941.98334	772.03101	-856.62744	814.68146	807.59668	-922.76025	827.72693	780.45673	-905.84222	737.55066	777.4621	-721.77661	1401.6001	1171.68372	-711.388	1210.38257	1274.43835	-664.12012	1100.36987	1295.58643	-585.27728	1012.80652	1313.63831	-452.44193	948.14343	1286.23657	-497.13959	905.48041	1308.99597	-420.61267	871.16302	1314.01343	-668.89215	955.62866	925.76038	-682.90948	957.56793	1145.14111	-830.14459	976.67267	942.8985	-834.54095	982.98993	1111.7124	-673.38104	645.03632	853.17957	-611.88239	494.4043	883.6037	-579.3147	242.30644	890.00256	-525.65784	76.72515	926.66046	-553.46246	52.35372	977.01825	-380.63824	85.46898	915.74487	-776.55298	624.01202	1184.3385	-793.67493	498.23538	1160.6991	-909.95355	252.44592	1144.06873	-966.96912	76.9737	1087.1438	-1006.57715	58.0387	1038.66418	-817.91565	30.68871	1096.03735	-777.51221	1689.88892	1008.41339	NaN	NaN	NaN	NaN	NaN	NaN	NaN	NaN	NaN	NaN	NaN	NaN	NaN	NaN	NaN
28	0.27	-672.4328	1649.40088	942.53265	-661.1485	1643.60498	1074.2085	-804.22729	1592.75073	955.6767	-790.90161	1592.19226	1084.30176	-795.29816	1440.25525	1017.1507	-845.04492	1114.35498	1031.3783	-686.62622	1360.85767	1009.33398	-656.22046	1183.82886	1009.75653	-866.32538	1280.40039	1113.33582	-755.45642	1390.12817	852.1593	-817.82135	1195.83496	793.33026	-857.7851	1090.35535	791.45691	-882.80688	941.44489	771.99774	-851.07324	813.72095	807.55927	-917.125	827.48615	780.44745	-901.33368	737.12921	777.53503	-712.34814	1400.10876	1171.59241	-701.46808	1209.00708	1274.5885	-653.55157	1099.35059	1295.76526	-573.59369	1012.86987	1313.46326	-439.98337	950.08118	1285.29712	-483.93192	906.83087	1308.52271	-406.95242	873.7088	1313.18811	-658.27795	954.25714	925.91479	-673.49689	956.38098	1145.39392	-819.73981	975.18414	942.26855	-824.91193	981.53412	1111.00684	-663.77594	643.17578	853.14075	-603.09259	492.61456	883.87219	-563.41473	241.62291	890.44379	-504.87653	77.68659	927.30365	-532.04779	52.75762	978.15649	-359.89087	90.14726	916.1579	-768.73645	623.17975	1184.35303	-786.71808	497.35516	1160.78638	-906.28894	253.04474	1143.97913	-966.25824	78.37369	1087.25061	-1006.28918	60.24288	1038.92212	-817.71747	30.58383	1095.95068	-767.74426	1688.60498	1008.44873	NaN	NaN	NaN	NaN	NaN	NaN	NaN	NaN	NaN	NaN	NaN	NaN	NaN	NaN	NaN
29	0.28	-662.70709	1648.31433	942.44293	-651.33905	1642.41077	1074.07471	-794.44464	1591.5957	955.57251	-781.06812	1590.92761	1084.1676	-785.61584	1438.93005	1016.89026	-835.04767	1112.96985	1030.90698	-676.77222	1359.66101	1009.14233	-646.06915	1182.71814	1009.64899	-856.74365	1278.88147	1112.76929	-745.76306	1388.81702	851.92322	-808.78241	1194.83618	793.22388	-849.22961	1089.52759	791.38782	-875.49762	940.87714	771.74451	-844.81836	812.81512	807.50439	-910.81006	827.20673	780.58258	-896.06915	736.67468	777.60327	-702.92493	1398.64917	1171.42041	-691.61292	1207.62891	1274.46106	-643.15387	1098.31836	1295.79968	-562.24689	1012.75073	1313.10095	-428.06915	951.56158	1284.34644	-471.47263	907.89764	1307.73218	-393.82892	875.63434	1312.1687	-647.59192	953.02209	926.12024	-663.96979	955.22607	1145.71277	-809.34943	973.85577	941.61627	-815.23169	980.12158	1110.25793	-653.22943	642.0791	852.95007	-593.78125	491.19614	884.18658	-549.0249	241.09389	890.98102	-486.39697	78.52539	928.08936	-512.60968	53.07333	978.80267	-341.45126	93.79987	916.66296	-760.57635	622.34369	1184.25684	-779.49176	496.61014	1160.80225	-902.29443	253.74001	1143.95911	-965.31409	80.12663	1087.56677	-1005.84882	62.84527	1039.41772	-817.21246	30.1436	1095.74585	-758.01227	1687.42578	1008.47668	NaN	NaN	NaN	NaN	NaN	NaN	NaN	NaN	NaN	NaN	NaN	NaN	NaN	NaN	NaN
30	0.29	-652.89777	1647.27563	942.23297	-641.61127	1641.32874	1073.91943	-784.74042	1590.62195	955.35785	-771.31372	1589.86047	1083.94678	-775.836	1437.81665	1016.52051	-824.89612	1111.66138	1030.31409	-666.81067	1358.66797	1008.9223	-636.05164	1181.71423	1009.51526	-847.13605	1277.55859	1112.09607	-735.95886	1387.66431	851.56799	-799.37769	1193.88684	792.94867	-840.33026	1088.72839	791.23346	-867.50854	940.2395	771.75537	-837.95825	811.98785	807.3172	-903.70386	826.91644	780.30371	-889.95911	736.26306	777.44684	-693.46661	1397.40613	1171.23108	-681.98584	1206.3573	1274.17078	-632.94373	1097.31287	1295.66565	-551.30493	1012.50464	1312.72363	-416.73196	952.57318	1283.37634	-459.51184	908.56195	1307.21326	-381.81635	877.32355	1311.59485	-636.76672	951.90924	926.26801	-654.37274	954.10004	1145.97949	-799.00122	972.8147	941.05743	-805.3139	978.79749	1109.55505	-641.98505	641.24451	852.60187	-584.25836	490.11383	884.47778	-535.95349	240.5381	891.53455	-470.61597	78.99189	928.72632	-496.15881	53.25705	979.53088	-325.38858	96.22483	917.36755	-751.89508	621.52197	1184.10156	-771.54022	495.78918	1160.74609	-897.96912	254.62598	1144.01709	-964.00415	81.95179	1087.99951	-1005.05267	65.3382	1039.84717	-817.07947	30.12317	1095.73999	-748.24536	1686.38354	1008.29022	NaN	NaN	NaN	NaN	NaN	NaN	NaN	NaN	NaN	NaN	NaN	NaN	NaN	NaN	NaN
